<svg width="24" height="24" viewBox="0 0 24 24" fill="none" xmlns="http://www.w3.org/2000/svg">
  <path d="M21 9v2l-8-2V7.5c0-.83-.67-1.5-1.5-1.5S10 6.67 10 7.5V9L2 11V9l8-2.5V4l-3-1V2l4.5 1L16 2v1l-3 1v2.5l8 2.5zM3 15h2v6H3v-6zm4 0h2v6H7v-6zm4 0h2v6h-2v-6zm4 0h2v6h-2v-6zm4 0h2v6h-2v-6z" stroke="currentColor" stroke-width="1.5" stroke-linecap="round" stroke-linejoin="round"/>
  <circle cx="12" cy="7" r="1" fill="#D4AF37"/>
  <circle cx="16" cy="10" r="0.8" fill="#D4AF37"/>
  <circle cx="8" cy="10" r="0.8" fill="#D4AF37"/>
</svg>