<svg xmlns="http://www.w3.org/2000/svg" style="display: none;">
  <symbol id="icon-aviation-helicopter" viewBox="0 0 24 24" fill="none">
    <path d="M12.5 2L15 4.5V6h5.5c.28 0 .5.22.5.5s-.22.5-.5.5H15v1l7 1v2l-7-1v.5c0 .28-.22.5-.5.5h-3v6c0 1.1-.9 2-2 2H8c-1.1 0-2-.9-2-2v-2H2v-2h4v-.5l-4-.5v-2l4 .5V6.5c0-.28.22-.5.5-.5H12V4.5L12.5 2zM8 14h3v2H8v-2z" stroke="currentColor" stroke-width="1.5" stroke-linecap="round" stroke-linejoin="round"/>
  </symbol>
  <symbol id="icon-aviation-jet" viewBox="0 0 24 24" fill="none">
    <path d="M21 16V14l-8-4V5.5c0-.83-.67-1.5-1.5-1.5S10 4.67 10 5.5V10l-8 4v2l8-2.5V17l-3 2v1.5l4.5-1 4.5 1V19l-3-2v-3.5L21 16z" stroke="currentColor" stroke-width="1.5" stroke-linecap="round" stroke-linejoin="round"/>
    <path d="M12 10.5L15 12l-3 1.5L9 12l3-1.5z" fill="#D4AF37"/>
  </symbol>
  <symbol id="icon-feature-comfort" viewBox="0 0 24 24" fill="none">
    <path d="M3 11v5h2v3h2v-3h10v3h2v-3h2v-5l-1-3h-18l-1 3zm2-4h14v2H5V7z" stroke="currentColor" stroke-width="1.5" stroke-linecap="round" stroke-linejoin="round"/>
    <path d="M7 2h2v10H7zM3 2h2v10H3zM11 6h2v6h-2z" stroke="currentColor" stroke-width="1.5" stroke-linecap="round" stroke-linejoin="round"/>
  </symbol>
  <symbol id="icon-feature-safety" viewBox="0 0 24 24" fill="none">
    <path d="M12 2l8 4v6c0 5-3.5 9.7-8 11-4.5-1.3-8-6-8-11V6l8-4z" stroke="currentColor" stroke-width="1.5" stroke-linecap="round" stroke-linejoin="round"/>
  </symbol>
  <symbol id="icon-service-catering" viewBox="0 0 24 24" fill="none">
    <path d="M18.06 22.99h1.66c.84 0 1.53-.64 1.63-1.46L23 5.05h-5L16.56 22.5c-.1.82.69 1.49 1.5 1.49zM15.53 2.5L15 5.05h5l-.53-2.55c-.25-1.26-1.37-2.5-2.74-2.5s-2.49 1.24-2.74 2.5zM1.94 5.05l1.65 16.48c.1.82.79 1.46 1.63 1.46h1.66c.81 0 1.6-.67 1.5-1.49L6.94 5.05H1.94zM3.74 2.5C2.37 2.5 1.25 1.26 1 0h0c0-.55.45-1 1-1s1 .45 1 1c0 1.1.9 2 2 2s2-.9 2-2c0-.55.45-1 1-1s1 .45 1 1h0c-.25 1.26-1.37 2.5-2.74 2.5H3.74z" stroke="currentColor" stroke-width="1.5" stroke-linecap="round" stroke-linejoin="round"/>
  </symbol>
  <symbol id="icon-service-concierge" viewBox="0 0 24 24" fill="none">
    <path d="M12 2a5 5 0 00-5 5v1H4v2h16V8h-3V7a5 5 0 00-5-5zM6 17a6 6 0 0112 0v1H6v-1z" stroke="currentColor" stroke-width="1.5" stroke-linecap="round" stroke-linejoin="round"/>
  </symbol>
  <symbol id="icon-service-group" viewBox="0 0 24 24" fill="none">
    <path d="M21 9v2l-8-2V7.5c0-.83-.67-1.5-1.5-1.5S10 6.67 10 7.5V9L2 11V9l8-2.5V4l-3-1V2l4.5 1L16 2v1l-3 1v2.5l8 2.5zM3 15h2v6H3v-6zm4 0h2v6H7v-6zm4 0h2v6h-2v-6zm4 0h2v6h-2v-6zm4 0h2v6h-2v-6z" stroke="currentColor" stroke-width="1.5" stroke-linecap="round" stroke-linejoin="round"/>
  </symbol>
  <symbol id="icon-service-medical" viewBox="0 0 24 24" fill="none">
    <path d="M19 3H5c-1.1 0-2 .9-2 2v14c0 1.1.9 2 2 2h14c1.1 0 2-.9 2-2V5c0-1.1-.9-2-2-2zm-2 8h-3v3c0 .55-.45 1-1 1h-2c-.55 0-1-.45-1-1v-3H7c-.55 0-1-.45-1-1V9c0-.55.45-1 1-1h3V5c0-.55.45-1 1-1h2c.55 0 1 .45 1 1v3h3c.55 0 1 .45 1 1v2c0 .55-.45 1-1 1z" stroke="currentColor" stroke-width="1.5" stroke-linecap="round" stroke-linejoin="round"/>
  </symbol>
  <symbol id="icon-ui-arrow-up" viewBox="0 0 24 24" fill="none">
    <path d="M6.3 14.7a1 1 0 0 1 0-1.4L11.6 8l5.3 5.3a1 1 0 0 1-1.4 1.4L12 10.4l-4.3 4.3a1 1 0 0 1-1.4 0z" fill="currentColor"/>
  </symbol>
  <symbol id="icon-ui-menu" viewBox="0 0 24 24" fill="none">
    <path d="M4 6h16" stroke="currentColor" stroke-width="2.5" stroke-linecap="round" stroke-linejoin="round"/>
    <path d="M4 12h16" stroke="currentColor" stroke-width="2.5" stroke-linecap="round" stroke-linejoin="round"/>
    <path d="M4 18h16" stroke="currentColor" stroke-width="2.5" stroke-linecap="round" stroke-linejoin="round"/>
  </symbol>
</svg>